:SAMPLES-PER-SECOND 30
:FULLY-SPECIFIED
:DEGREES
1356
root  42.1979 29.6224 5.54131 118.334 82.4804 171.677
RightUpLeg  -0.172512 0.82013 -18.1718
RightLeg  48.8279 4.08679 4.64372
RightFoot  5.42022 -0.907312 6.20125
RightToes  3.49245e-010 0 -3.6325e-017
Spine  119.082 -2.61201 -0.976965
Spine1  -8.67755 0.431976 -6.72978
HEad  -44.7766 -7.11786 2.62968
LeftShoulder1  -0.250384 -7.75537 12.221
LeftArm  -63.3641 -36.9403 -18.2482
LeftForeArm  53.0394 -78.5336 -82.57
LeftHand  -0.355377 -1.60359 6.112
RightShoulder  0.267074 0.771128 -2.52368
RightArm  -59.6672 -6.68471 5.81993
RightForeArm  59.6497 74.0735 129.103
RightHand  -1.00663 5.64472 -10.8694
LeftUpLeg  21.4735 -6.7725 7.5477
LeftLeg  72.7258 -1.09363 -2.95512
LeftFoot  -36.7212 -0.960176 -5.25479
LeftToes  -2.21735e-009 9.83027e-011 -4.04511e-011
1357
root  42.8173 29.0944 5.91587 126.933 77.4812 -176.12
RightUpLeg  3.68304 -0.214095 -20.757
RightLeg  53.2796 3.18828 4.17669
RightFoot  2.16835 -0.81602 6.98116
RightToes  3.49245e-010 0 -3.6325e-017
Spine  121.39 -10.5439 -0.443093
Spine1  -8.72226 -3.12038 -9.29005
HEad  -46.8071 -8.13286 3.21415
LeftShoulder1  -0.0856427 -8.05488 10.4991
LeftArm  -61.1787 -37.5683 -17.886
LeftForeArm  48.3492 -78.3753 -79.9475
LeftHand  -0.363539 -0.221684 7.57012
RightShoulder  0.357262 0.558386 0.41245
RightArm  -58.4189 -3.53783 5.06816
RightForeArm  61.2509 73.879 130.006
RightHand  -1.06312 5.01066 -12.1136
LeftUpLeg  23.9356 -10.9126 4.64142
LeftLeg  75.069 -0.421828 -0.656628
LeftFoot  -37.494 -1.16261 -5.98022
LeftToes  -2.21735e-009 9.83027e-011 -4.04511e-011
1358
root  43.3662 28.8376 6.46346 128.797 74.2852 -171.706
RightUpLeg  6.55827 -1.29878 -21.4743
RightLeg  56.2577 2.32138 3.29903
RightFoot  1.20265 -0.482755 4.4837
RightToes  3.49245e-010 0 -3.6325e-017
Spine  121.531 -14.5935 -0.0980538
Spine1  -7.26764 -4.8586 -8.57339
HEad  -49.2747 -7.63516 3.85871
LeftShoulder1  0.104466 -7.43502 8.54725
LeftArm  -58.5713 -37.4352 -19.2978
LeftForeArm  51.5994 -78.4824 -82.25
LeftHand  -0.340182 -0.0131988 7.36961
RightShoulder  0.447003 0.485173 3.11342
RightArm  -57.0091 0.946713 6.13492
RightForeArm  65.5428 73.7029 131.024
RightHand  -0.994108 4.74941 -11.6957
LeftUpLeg  26.0483 -14.0195 3.30503
LeftLeg  76.0774 0.00132011 1.24238
LeftFoot  -37.4749 -1.62764 -7.98248
LeftToes  -2.21735e-009 9.83027e-011 -4.04511e-011
1359
root  44.1293 29.083 6.86681 130.881 72.9415 -171.338
RightUpLeg  6.12415 -2.98546 -21.8441
RightLeg  57.692 2.05295 3.03306
RightFoot  -1.2238 -0.401797 4.43579
RightToes  3.49245e-010 0 -3.6325e-017
Spine  118.428 -17.5799 0.89722
Spine1  -6.85158 -5.82332 -9.77911
HEad  -50.8875 -7.47206 3.91888
LeftShoulder1  0.450319 -7.05841 4.78749
LeftArm  -55.1415 -38.5435 -19.9356
LeftForeArm  47.5248 -78.3419 -77.6697
LeftHand  -0.355709 -0.156459 7.51926
RightShoulder  0.553278 0.732348 5.30266
RightArm  -54.955 4.3656 7.48241
RightForeArm  70.0281 73.4531 132.344
RightHand  -0.963595 6.14863 -9.97765
LeftUpLeg  25.8158 -15.6367 2.92099
LeftLeg  74.9309 0.307303 2.48045
LeftFoot  -37.1685 -1.80476 -8.83917
LeftToes  -2.21735e-009 9.83027e-011 -4.04511e-011
1360
root  44.7999 29.6254 7.18405 133.827 71.4237 -171.123
RightUpLeg  5.75584 -5.77583 -22.8013
RightLeg  57.2989 2.24034 3.29145
RightFoot  -2.78585 -0.300848 3.76085
RightToes  3.49245e-010 0 -3.6325e-017
Spine  113.509 -20.9571 2.74904
Spine1  -5.6561 -6.79614 -10.1896
HEad  -52.3607 -7.58115 2.97457
LeftShoulder1  0.758595 -7.08908 1.45658
LeftArm  -50.8941 -38.4889 -22.5108
LeftForeArm  45.615 -78.2493 -75.5358
LeftHand  -0.348895 -0.256456 7.25858
RightShoulder  0.567615 0.299766 7.37983
RightArm  -53.0976 8.90906 8.42164
RightForeArm  70.1853 73.8527 130.871
RightHand  -0.909785 4.56551 -10.8763
LeftUpLeg  24.9083 -17.3665 2.40842
LeftLeg  72.5625 0.505858 2.79893
LeftFoot  -36.3388 -1.87728 -9.44715
LeftToes  -2.21735e-009 9.83027e-011 -4.04511e-011
1361
root  45.5175 30.3974 7.53267 134.226 70.5866 -174.272
RightUpLeg  4.86416 -8.05191 -23.7584
RightLeg  56.0594 2.55387 3.64482
RightFoot  -4.43594 -0.22817 3.28669
RightToes  3.49245e-010 0 -3.6325e-017
Spine  107.559 -21.6875 4.36382
Spine1  -4.49442 -7.35263 -9.04823
HEad  -53.1983 -7.70282 0.666402
LeftShoulder1  1.11516 -6.92733 -2.56566
LeftArm  -46.2587 -37.323 -24.7321
LeftForeArm  47.293 -78.323 -76.2148
LeftHand  -0.351145 -0.545124 6.97093
RightShoulder  0.538783 -0.199616 8.97456
RightArm  -50.5803 14.1611 10.0338
RightForeArm  67.3784 74.8062 126.52
RightHand  -0.910225 3.701 -11.8164
LeftUpLeg  23.8631 -17.51 2.431
LeftLeg  68.7792 0.647778 2.67432
LeftFoot  -34.4994 -1.83311 -9.93689
LeftToes  -2.21735e-009 9.83027e-011 -4.04511e-011
1362
root  46.2897 31.33 7.97458 136.149 72.5956 -179.031
RightUpLeg  -0.081647 -9.24316 -21.459
RightLeg  54.5009 2.52163 3.36615
RightFoot  -6.25692 -0.201299 3.59452
RightToes  3.49245e-010 0 -3.6325e-017
Spine  98.5486 -19.1704 6.20892
Spine1  -3.25055 -5.73212 -8.88449
HEad  -54.0894 -6.51475 0.37514
LeftShoulder1  1.44365 -6.63613 -6.55905
LeftArm  -42.1818 -36.6883 -25.0903
LeftForeArm  43.8848 -78.1205 -72.5231
LeftHand  -0.322347 -0.456773 6.49002
RightShoulder  0.553957 -0.519294 11.4782
RightArm  -47.6717 18.62 11.3666
RightForeArm  64.2129 76.0545 119.455
RightHand  -0.692887 3.1205 -9.6671
LeftUpLeg  19.985 -14.7051 6.3574
LeftLeg  64.1417 0.331971 1.41389
LeftFoot  -32.2484 -1.69198 -10.2122
LeftToes  -2.21735e-009 9.83027e-011 -4.04511e-011
1363
root  46.9537 32.2449 8.36285 140.27 73.6001 178.821
RightUpLeg  -3.86983 -11.7356 -19.8004
RightLeg  52.0323 2.96686 3.69831
RightFoot  -8.28771 -0.176276 4.50755
RightToes  3.49245e-010 0 -3.6325e-017
Spine  89.0372 -17.8867 8.28571
Spine1  -2.08635 -4.9257 -9.12749
HEad  -56.9121 -3.3062 0.29171
LeftShoulder1  1.69859 -6.37418 -9.87926
LeftArm  -38.6427 -35.0895 -25.6572
LeftForeArm  39.2677 -77.7439 -66.9155
LeftHand  -0.270407 -0.709504 5.24262
RightShoulder  0.590595 -0.600217 13.5001
RightArm  -43.607 21.7364 13.0513
RightForeArm  61.8894 76.8409 113.462
RightHand  -0.536589 2.10869 -8.50351
LeftUpLeg  15.8837 -12.5361 9.64305
LeftLeg  59.9921 -0.318224 -0.0318981
LeftFoot  -29.7736 -1.63837 -11.164
LeftToes  -2.21735e-009 9.83027e-011 -4.04511e-011
1364
root  47.4984 33.0182 8.8288 142.113 75.3637 175.518
RightUpLeg  -7.3257 -12.2553 -17.2924
RightLeg  49.7446 2.86273 3.25535
RightFoot  -10.5845 -0.108005 5.51268
RightToes  3.49245e-010 0 -3.6325e-017
Spine  81.1499 -15.0323 9.43327
Spine1  -2.14508 -3.45314 -7.80464
HEad  -55.5303 -3.7135 -2.06363
LeftShoulder1  1.95727 -6.03938 -13.5365
LeftArm  -34.164 -32.8589 -26.9884
LeftForeArm  36.8553 -77.4875 -64.2667
LeftHand  -0.328119 -0.840719 6.23989
RightShoulder  0.614885 -0.698483 15.2321
RightArm  -38.8807 23.7774 13.8835
RightForeArm  58.8259 77.4127 107.54
RightHand  -0.446115 1.78988 -7.36044
LeftUpLeg  12.7913 -9.36427 12.5866
LeftLeg  56.5023 -0.875312 -0.915468
LeftFoot  -25.9471 -1.33286 -11.5723
LeftToes  -2.21735e-009 9.83027e-011 -4.04511e-011
1365
root  48.179 33.8864 9.21703 144.139 76.9136 171.312
RightUpLeg  -11.3251 -13.0561 -15.079
RightLeg  46.7706 3.13632 3.24064
RightFoot  -13.0666 0.0112312 6.58326
RightToes  3.49245e-010 0 -3.6325e-017
Spine  71.5236 -12.4659 10.7609
Spine1  -1.76709 -2.13542 -6.99161
HEad  -55.2441 -4.02537 -4.13093
LeftShoulder1  2.16128 -5.57799 -17.1618
LeftArm  -29.8868 -31.8203 -27.1491
LeftForeArm  29.6878 -76.6284 -57.2696
LeftHand  -0.303011 -0.570484 5.99671
RightShoulder  0.596576 -0.848916 15.9291
RightArm  -34.0534 24.6777 15.713
RightForeArm  53.3751 77.797 100.827
RightHand  -0.35404 1.52601 -6.10507
LeftUpLeg  8.54676 -6.06377 14.4749
LeftLeg  53.564 -0.909981 -0.854181
LeftFoot  -20.545 -0.871394 -12.5536
LeftToes  -2.21735e-009 9.83027e-011 -4.04511e-011
